<?xml version="1.0" standalone="no"?><svg xmlns="http://www.w3.org/2000/svg" viewBox="0 0 1440 320"><path fill="#273036" fill-opacity="1" d="M0,0L24,26.7C48,53,96,107,144,106.7C192,107,240,53,288,74.7C336,96,384,192,432,218.7C480,245,528,203,576,165.3C624,128,672,96,720,101.3C768,107,816,149,864,144C912,139,960,85,1008,80C1056,75,1104,117,1152,122.7C1200,128,1248,96,1296,80C1344,64,1392,64,1416,64L1440,64L1440,0L1416,0C1392,0,1344,0,1296,0C1248,0,1200,0,1152,0C1104,0,1056,0,1008,0C960,0,912,0,864,0C816,0,768,0,720,0C672,0,624,0,576,0C528,0,480,0,432,0C384,0,336,0,288,0C240,0,192,0,144,0C96,0,48,0,24,0L0,0Z"></path></svg>